<svg width="380" height="64" viewBox="0 0 380 64" fill="none" xmlns="http://www.w3.org/2000/svg">
<path d="M143.809 6.74214H150.375C150.634 6.73413 150.892 6.7782 151.133 6.87175C151.375 6.9653 151.595 7.1064 151.781 7.2867C151.967 7.46699 152.115 7.68279 152.215 7.92128C152.316 8.15978 152.368 8.41611 152.368 8.67505V44.4539C152.367 44.7068 152.416 44.9574 152.512 45.1913C152.608 45.4252 152.749 45.6377 152.928 45.8165C153.107 45.9954 153.32 46.137 153.554 46.2331C153.787 46.3293 154.038 46.3781 154.291 46.3768H167.841C168.095 46.3768 168.345 46.4269 168.579 46.5241C168.813 46.6214 169.026 46.7639 169.205 46.9435C169.383 47.1232 169.525 47.3363 169.621 47.5708C169.717 47.8052 169.766 48.0564 169.764 48.3097V54.1882C169.766 54.4415 169.717 54.6927 169.621 54.9271C169.525 55.1616 169.383 55.3747 169.205 55.5543C169.026 55.734 168.813 55.8765 168.579 55.9738C168.345 56.071 168.095 56.1211 167.841 56.1211H143.809C143.298 56.1211 142.808 55.9188 142.446 55.5585C142.084 55.1981 141.879 54.709 141.876 54.1981V8.67505C141.876 8.42122 141.926 8.16987 142.024 7.93535C142.121 7.70084 142.263 7.48776 142.443 7.30827C142.622 7.12878 142.835 6.98641 143.07 6.88927C143.304 6.79213 143.556 6.74214 143.809 6.74214V6.74214Z" fill="#3278F5"/>
<path d="M230.631 6.74219H237.217C237.47 6.74218 237.721 6.79225 237.955 6.88951C238.189 6.98677 238.401 7.12931 238.58 7.30892C238.759 7.48854 238.9 7.7017 238.996 7.93616C239.092 8.17061 239.141 8.42174 239.14 8.6751V44.4539C239.14 44.9605 239.34 45.4466 239.696 45.8066C240.052 46.1667 240.536 46.3716 241.043 46.3769H254.583C255.096 46.3769 255.587 46.5805 255.95 46.943C256.312 47.3055 256.516 47.7971 256.516 48.3098V54.1882C256.516 54.7009 256.312 55.1925 255.95 55.555C255.587 55.9175 255.096 56.1211 254.583 56.1211H230.631C230.378 56.1211 230.127 56.0711 229.893 55.9738C229.659 55.8765 229.446 55.734 229.268 55.5544C229.089 55.3748 228.948 55.1616 228.852 54.9272C228.756 54.6927 228.707 54.4416 228.708 54.1882V8.6751C228.707 8.42174 228.756 8.17061 228.852 7.93616C228.948 7.7017 229.089 7.48854 229.268 7.30892C229.446 7.12931 229.659 6.98677 229.893 6.88951C230.127 6.79225 230.378 6.74218 230.631 6.74219V6.74219Z" fill="#3278F5"/>
<path d="M170.661 31.8105C170.639 26.8381 172.094 21.971 174.841 17.826C177.587 13.681 181.503 10.4445 186.09 8.52661C190.678 6.60868 195.732 6.0956 200.612 7.05236C205.491 8.00913 209.977 10.3927 213.501 13.9011C217.024 17.4095 219.428 21.8848 220.406 26.7602C221.384 31.6356 220.893 36.6916 218.995 41.2876C217.097 45.8837 213.878 49.8131 209.745 52.578C205.612 55.3428 200.751 56.8188 195.779 56.8188C192.482 56.8466 189.212 56.2194 186.159 54.9738C183.106 53.7282 180.331 51.8889 177.995 49.5626C175.658 47.2363 173.807 44.4692 172.548 41.4219C171.289 38.3746 170.648 35.1076 170.661 31.8105V31.8105ZM210.156 31.8105C210.156 23.4611 203.829 16.8653 195.829 16.8653C187.828 16.8653 181.491 23.4711 181.491 31.8105C181.491 40.1499 187.828 46.7557 195.829 46.7557C203.829 46.7557 210.156 40.1201 210.156 31.8105Z" fill="#3278F5"/>
<path d="M267.735 19.8545H273.623C273.882 19.8544 274.138 19.9063 274.377 20.0071C274.615 20.108 274.831 20.2557 275.012 20.4416C275.192 20.6275 275.333 20.8477 275.427 21.0891C275.52 21.3306 275.564 21.5884 275.556 21.8472V54.1986C275.554 54.7095 275.349 55.1986 274.986 55.5589C274.624 55.9192 274.134 56.1215 273.623 56.1215H267.735C267.225 56.1215 266.736 55.9189 266.375 55.5583C266.014 55.1977 265.812 54.7086 265.812 54.1986V21.8472C265.802 21.5889 265.845 21.3313 265.938 21.0899C266.03 20.8485 266.17 20.6282 266.35 20.4421C266.529 20.2561 266.744 20.1082 266.982 20.0072C267.22 19.9063 267.476 19.8543 267.735 19.8545V19.8545Z" fill="#3278F5"/>
<path d="M267.735 6.74219H273.623C274.136 6.74219 274.628 6.94583 274.99 7.30832C275.353 7.67082 275.556 8.16246 275.556 8.6751V14.3443C275.556 14.857 275.353 15.3486 274.99 15.7111C274.628 16.0736 274.136 16.2772 273.623 16.2772H267.735C267.482 16.2772 267.231 16.2272 266.997 16.1299C266.763 16.0326 266.55 15.8901 266.372 15.7105C266.193 15.5309 266.052 15.3177 265.956 15.0833C265.86 14.8488 265.811 14.5977 265.812 14.3443V8.6751C265.811 8.42174 265.86 8.17061 265.956 7.93616C266.052 7.7017 266.193 7.48854 266.372 7.30892C266.55 7.12931 266.763 6.98677 266.997 6.88951C267.231 6.79225 267.482 6.74218 267.735 6.74219Z" fill="#3278F5"/>
<path d="M338.685 6.74248H345.271C345.524 6.74247 345.775 6.79254 346.009 6.8898C346.243 6.98706 346.455 7.1296 346.634 7.30921C346.813 7.48883 346.954 7.70199 347.05 7.93645C347.146 8.1709 347.195 8.42203 347.194 8.67539V54.2782C347.193 54.5267 347.141 54.7724 347.043 55.0008C346.945 55.2291 346.802 55.4354 346.623 55.6074C346.443 55.7793 346.231 55.9135 345.999 56.0018C345.767 56.0901 345.519 56.1308 345.271 56.1214H338.685C338.431 56.1406 338.176 56.1072 337.935 56.0233C337.695 55.9394 337.474 55.8069 337.287 55.6339C337.1 55.4609 336.951 55.2513 336.848 55.018C336.746 54.7848 336.693 54.5329 336.692 54.2782V8.67539C336.691 8.41605 336.742 8.15908 336.842 7.91995C336.942 7.68081 337.09 7.46445 337.276 7.28388C337.462 7.10331 337.683 6.96226 337.925 6.86922C338.167 6.77618 338.426 6.73307 338.685 6.74248V6.74248Z" fill="#3278F5"/>
<path d="M95.5762 54.8659L120.485 25.7228V54.1983C120.485 54.7083 120.687 55.1975 121.048 55.5581C121.409 55.9187 121.898 56.1213 122.408 56.1213H128.994C129.504 56.1213 129.993 55.9187 130.353 55.5581C130.714 55.1975 130.917 54.7083 130.917 54.1983V11.1362C130.917 8.28669 129.472 7.32023 127.928 6.98147C126.915 6.67815 125.838 6.6629 124.817 6.93744C123.797 7.21198 122.873 7.76544 122.149 8.53577L84.5865 53.4611C83.5304 54.7165 84.3175 56.1213 85.3337 56.1213H93.0754C93.5595 56.1124 94.0356 55.9949 94.4684 55.7777C94.9012 55.5604 95.2797 55.2488 95.5762 54.8659V54.8659Z" fill="#3278F5"/>
<path d="M378.678 6.74219H369.572C369.068 6.7441 368.571 6.85561 368.115 7.06897C367.659 7.28232 367.255 7.5924 366.931 7.97766L348.29 30.3357L347.702 31.0331C347.577 31.1902 347.508 31.3852 347.508 31.5861C347.508 31.787 347.577 31.982 347.702 32.1391L348.29 32.8265L367.489 55.5134C367.651 55.7046 367.852 55.8581 368.079 55.9631C368.307 56.0681 368.554 56.122 368.804 56.1211H378.658C378.823 56.1225 378.984 56.0765 379.123 55.9886C379.262 55.9007 379.373 55.7747 379.443 55.6255C379.512 55.4763 379.537 55.3102 379.514 55.1472C379.492 54.9843 379.423 54.8312 379.316 54.7063L360.126 32.0295C360.025 31.9038 359.97 31.7474 359.97 31.5861C359.97 31.4248 360.025 31.2684 360.126 31.1427L379.336 8.157C379.439 8.03086 379.504 7.87828 379.524 7.71673C379.545 7.55518 379.519 7.39119 379.45 7.24354C379.382 7.0959 379.273 6.97056 379.136 6.88189C379 6.79322 378.841 6.74481 378.678 6.74219V6.74219Z" fill="#3278F5"/>
<path d="M323.74 6.74214H317.203C316.693 6.74477 316.203 6.94958 315.843 7.31178C315.483 7.67399 315.281 8.16413 315.281 8.67505V38.4858L296.838 8.02742C296.687 7.67012 296.441 7.36119 296.127 7.13448C295.812 6.90777 295.441 6.77203 295.055 6.74214H288.519C288.008 6.74477 287.519 6.94958 287.158 7.31178C286.798 7.67399 286.596 8.16413 286.596 8.67505V54.1981C286.598 54.7073 286.802 55.1949 287.162 55.555C287.522 55.915 288.009 56.1185 288.519 56.1211H295.055C295.564 56.1185 296.051 55.915 296.412 55.555C296.772 55.1949 296.975 54.7073 296.978 54.1981V24.1284L315.49 54.9454C315.657 55.2815 315.909 55.5675 316.223 55.774C316.536 55.9805 316.899 56.1003 317.273 56.1211H323.74C323.997 56.1291 324.254 56.0853 324.495 55.9924C324.736 55.8995 324.956 55.7592 325.142 55.58C325.327 55.4008 325.475 55.1862 325.577 54.9488C325.678 54.7115 325.731 54.4562 325.732 54.1981V8.67505C325.732 8.41611 325.68 8.15978 325.58 7.92128C325.479 7.68279 325.331 7.46699 325.145 7.2867C324.959 7.1064 324.739 6.9653 324.498 6.87175C324.256 6.7782 323.998 6.73413 323.74 6.74214V6.74214Z" fill="#3278F5"/>
<path d="M39.7808 10.9368C37.7881 14.2845 23.0621 40.319 23.072 40.319C24.944 41.2384 27.0492 41.5732 29.114 41.28C31.1788 40.9868 33.1076 40.0792 34.6496 38.675C35.4367 38.0772 49.4154 25.1746 50.2225 24.517C51.7599 23.2669 53.6232 22.4834 55.592 22.2592C57.5608 22.0349 59.5526 22.3793 61.3317 23.2516L52.9923 38.0473C52.9923 38.0473 60.0265 41.0862 68.0372 29.8474C75.1411 19.884 81.0793 7.33995 83.9787 1.36187C54.726 -1.84637 43.9953 4.01215 39.7808 10.9368Z" fill="url(#paint0_linear_660_3205)"/>
<path d="M44.6828 52.6044C46.7552 49.2467 61.4015 23.2222 61.3915 23.2222C59.5222 22.3003 57.419 21.9613 55.3546 22.2491C53.2902 22.5369 51.3599 23.4382 49.814 24.8362C49.0269 25.444 35.0481 38.3467 34.2411 38.9943C32.7052 40.2471 30.8423 41.0331 28.8733 41.2592C26.9042 41.4852 24.9116 41.1418 23.1318 40.2697C23.1318 40.2697 31.4712 25.4739 31.4712 25.4739C31.4712 25.4739 24.437 22.4849 16.4264 33.6738C9.32246 43.6373 3.38423 56.1813 0.484863 62.1494C29.8173 65.3876 40.4782 59.529 44.6828 52.6044Z" fill="url(#paint1_linear_660_3205)"/>
<path d="M39.7808 10.9368C37.7881 14.2845 23.0621 40.319 23.0821 40.319C24.9522 41.2389 27.056 41.574 29.1193 41.2808C31.1827 40.9876 33.1099 40.0795 34.6496 38.6751C35.4367 38.0772 49.4155 25.1746 50.2225 24.517C51.76 23.2669 53.6233 22.4834 55.5921 22.2592C57.5608 22.0349 59.5526 22.3793 61.3318 23.2516C61.3318 23.2516 52.9924 38.0474 52.9924 38.0474C52.9924 38.0474 60.0266 41.0862 68.0372 29.8474C75.1412 19.884 81.0794 7.32999 83.9788 1.36187C54.726 -1.84637 43.9954 4.01215 39.7808 10.9368Z" fill="url(#paint2_linear_660_3205)"/>
<defs>
<linearGradient id="paint0_linear_660_3205" x1="53.5503" y1="1.92979" x2="53.5503" y2="37.5791" gradientUnits="userSpaceOnUse">
<stop stop-color="#3278F5"/>
<stop offset="0.26" stop-color="#2C73F5"/>
<stop offset="0.6" stop-color="#1C64F5"/>
<stop offset="0.99" stop-color="#014CF5"/>
<stop offset="1" stop-color="#004BF5"/>
</linearGradient>
<linearGradient id="paint1_linear_660_3205" x1="30.9233" y1="25.4241" x2="30.9233" y2="60.9737" gradientUnits="userSpaceOnUse">
<stop stop-color="#F5C300"/>
<stop offset="0.3" stop-color="#F5C000"/>
<stop offset="0.54" stop-color="#F5B600"/>
<stop offset="0.75" stop-color="#F5A500"/>
<stop offset="0.95" stop-color="#F58E00"/>
<stop offset="1" stop-color="#F58700"/>
</linearGradient>
<linearGradient id="paint2_linear_660_3205" x1="4518.48" y1="900.789" x2="4518.48" y2="2365.46" gradientUnits="userSpaceOnUse">
<stop stop-color="#3278F5"/>
<stop offset="0.26" stop-color="#2C73F5"/>
<stop offset="0.6" stop-color="#1C64F5"/>
<stop offset="0.99" stop-color="#014CF5"/>
<stop offset="1" stop-color="#004BF5"/>
</linearGradient>
</defs>
</svg>
